ply
format ascii 1.0
comment Created by Blender 2.83.3 - www.blender.org, source file: 'test.blend'
element vertex 12
property float x
property float y
property float z
property float nx
property float ny
property float nz
property float s
property float t
element face 6
property list uchar uint vertex_indices
end_header
0.930416 -1.611529 -0.487379 -0.866024 -0.499985 0.000000 0.356665 0.506689
-0.930417 1.611528 4.687379 -0.866024 -0.499985 0.000000 0.006689 0.993311
-0.930416 1.611529 -0.487379 -0.866024 -0.499985 0.000000 0.006689 0.506689
1.860833 0.000000 -0.487379 0.000000 -1.000000 0.000000 0.356666 0.006689
-1.860833 -0.000001 4.687379 0.000000 -1.000000 0.000000 0.006689 0.493311
-1.860833 0.000000 -0.487379 0.000000 -1.000000 0.000000 0.006689 0.006689
-0.930416 -1.611528 -0.487379 -0.866024 0.499985 0.000000 0.720020 0.006689
0.930416 1.611527 4.687379 -0.866024 0.499985 0.000000 0.370044 0.493311
0.930417 1.611528 -0.487379 -0.866024 0.499985 0.000000 0.370044 0.006689
0.930416 -1.611530 4.687378 -0.866024 -0.499985 0.000000 0.356665 0.993311
1.860833 -0.000001 4.687379 0.000000 -1.000000 0.000000 0.356666 0.493311
-0.930417 -1.611529 4.687378 -0.866024 0.499985 0.000000 0.720020 0.493311
3 0 1 2
3 3 4 5
3 6 7 8
3 0 9 1
3 3 10 4
3 6 11 7
